# MagicaVoxel @ Ephtracy

# group
o Bottle_Water-5

# material
mtllib Bunker - Free Sample-75-Bottle_Water-5.mtl
usemtl palette

# normals
vn 1 0 0
vn -1 0 0
vn 0 0 1
vn 0 0 -1
vn 0 1 0
vn 0 -1 0

# texcoords
vt 0.662109 0.5
vt 0.849609 0.5
vt 0.857422 0.5

# verts
v 0 1.24 -4.32
v 0 1.24 -4.46
v 0 1.18 -4.32
v 0 1.18 -4.46
v 0 1.02 -4.32
v 0 1.02 -4.46
v -0.02 1.26 -4.34
v -0.02 1.26 -4.44
v -0.02 1.24 -4.3
v -0.02 1.24 -4.32
v -0.02 1.24 -4.34
v -0.02 1.24 -4.44
v -0.02 1.24 -4.46
v -0.02 1.24 -4.48
v -0.02 1.18 -4.3
v -0.02 1.18 -4.32
v -0.02 1.18 -4.46
v -0.02 1.18 -4.48
v -0.02 1.02 -4.3
v -0.02 1.02 -4.32
v -0.02 1.02 -4.46
v -0.02 1.02 -4.48
v -0.02 1 -4.32
v -0.02 1 -4.46
v -0.04 1.3 -4.36
v -0.04 1.3 -4.42
v -0.04 1.28 -4.34
v -0.04 1.28 -4.36
v -0.04 1.28 -4.42
v -0.04 1.28 -4.44
v -0.04 1.26 -4.32
v -0.04 1.26 -4.34
v -0.04 1.26 -4.44
v -0.04 1.26 -4.46
v -0.04 1.24 -4.32
v -0.04 1.24 -4.34
v -0.04 1.24 -4.44
v -0.04 1.24 -4.46
v -0.06 1.34 -4.36
v -0.06 1.34 -4.42
v -0.06 1.3 -4.34
v -0.06 1.3 -4.36
v -0.06 1.3 -4.42
v -0.06 1.3 -4.44
v -0.06 1.28 -4.34
v -0.06 1.28 -4.36
v -0.06 1.28 -4.42
v -0.06 1.28 -4.44
v -0.12 1.34 -4.36
v -0.12 1.34 -4.42
v -0.12 1.3 -4.34
v -0.12 1.3 -4.36
v -0.12 1.3 -4.42
v -0.12 1.3 -4.44
v -0.12 1.28 -4.34
v -0.12 1.28 -4.36
v -0.12 1.28 -4.42
v -0.12 1.28 -4.44
v -0.14 1.3 -4.36
v -0.14 1.3 -4.42
v -0.14 1.28 -4.34
v -0.14 1.28 -4.36
v -0.14 1.28 -4.42
v -0.14 1.28 -4.44
v -0.14 1.26 -4.32
v -0.14 1.26 -4.34
v -0.14 1.26 -4.44
v -0.14 1.26 -4.46
v -0.14 1.24 -4.32
v -0.14 1.24 -4.34
v -0.14 1.24 -4.44
v -0.14 1.24 -4.46
v -0.16 1.26 -4.34
v -0.16 1.26 -4.44
v -0.16 1.24 -4.3
v -0.16 1.24 -4.32
v -0.16 1.24 -4.34
v -0.16 1.24 -4.44
v -0.16 1.24 -4.46
v -0.16 1.24 -4.48
v -0.16 1.18 -4.3
v -0.16 1.18 -4.32
v -0.16 1.18 -4.46
v -0.16 1.18 -4.48
v -0.16 1.02 -4.3
v -0.16 1.02 -4.32
v -0.16 1.02 -4.46
v -0.16 1.02 -4.48
v -0.16 1 -4.32
v -0.16 1 -4.46
v -0.18 1.24 -4.32
v -0.18 1.24 -4.46
v -0.18 1.18 -4.32
v -0.18 1.18 -4.46
v -0.18 1.02 -4.32
v -0.18 1.02 -4.46
v -0.02 1.24 -4.3
v -0.02 1.18 -4.3
v -0.02 1.02 -4.3
v -0.16 1.24 -4.3
v -0.16 1.18 -4.3
v -0.16 1.02 -4.3
v 0 1.24 -4.32
v 0 1.18 -4.32
v 0 1.02 -4.32
v -0.02 1.24 -4.32
v -0.02 1.18 -4.32
v -0.02 1.02 -4.32
v -0.02 1 -4.32
v -0.04 1.26 -4.32
v -0.04 1.24 -4.32
v -0.14 1.26 -4.32
v -0.14 1.24 -4.32
v -0.16 1.24 -4.32
v -0.16 1.18 -4.32
v -0.16 1.02 -4.32
v -0.16 1 -4.32
v -0.18 1.24 -4.32
v -0.18 1.18 -4.32
v -0.18 1.02 -4.32
v -0.02 1.26 -4.34
v -0.02 1.24 -4.34
v -0.04 1.28 -4.34
v -0.04 1.26 -4.34
v -0.04 1.24 -4.34
v -0.06 1.3 -4.34
v -0.06 1.28 -4.34
v -0.12 1.3 -4.34
v -0.12 1.28 -4.34
v -0.14 1.28 -4.34
v -0.14 1.26 -4.34
v -0.14 1.24 -4.34
v -0.16 1.26 -4.34
v -0.16 1.24 -4.34
v -0.04 1.3 -4.36
v -0.04 1.28 -4.36
v -0.06 1.34 -4.36
v -0.06 1.3 -4.36
v -0.06 1.28 -4.36
v -0.12 1.34 -4.36
v -0.12 1.3 -4.36
v -0.12 1.28 -4.36
v -0.14 1.3 -4.36
v -0.14 1.28 -4.36
v -0.04 1.3 -4.42
v -0.04 1.28 -4.42
v -0.06 1.34 -4.42
v -0.06 1.3 -4.42
v -0.06 1.28 -4.42
v -0.12 1.34 -4.42
v -0.12 1.3 -4.42
v -0.12 1.28 -4.42
v -0.14 1.3 -4.42
v -0.14 1.28 -4.42
v -0.02 1.26 -4.44
v -0.02 1.24 -4.44
v -0.04 1.28 -4.44
v -0.04 1.26 -4.44
v -0.04 1.24 -4.44
v -0.06 1.3 -4.44
v -0.06 1.28 -4.44
v -0.12 1.3 -4.44
v -0.12 1.28 -4.44
v -0.14 1.28 -4.44
v -0.14 1.26 -4.44
v -0.14 1.24 -4.44
v -0.16 1.26 -4.44
v -0.16 1.24 -4.44
v 0 1.24 -4.46
v 0 1.18 -4.46
v 0 1.02 -4.46
v -0.02 1.24 -4.46
v -0.02 1.18 -4.46
v -0.02 1.02 -4.46
v -0.02 1 -4.46
v -0.04 1.26 -4.46
v -0.04 1.24 -4.46
v -0.14 1.26 -4.46
v -0.14 1.24 -4.46
v -0.16 1.24 -4.46
v -0.16 1.18 -4.46
v -0.16 1.02 -4.46
v -0.16 1 -4.46
v -0.18 1.24 -4.46
v -0.18 1.18 -4.46
v -0.18 1.02 -4.46
v -0.02 1.24 -4.48
v -0.02 1.18 -4.48
v -0.02 1.02 -4.48
v -0.16 1.24 -4.48
v -0.16 1.18 -4.48
v -0.16 1.02 -4.48
v -0.06 1.34 -4.36
v -0.12 1.34 -4.36
v -0.06 1.34 -4.42
v -0.12 1.34 -4.42
v -0.06 1.3 -4.34
v -0.12 1.3 -4.34
v -0.04 1.3 -4.36
v -0.06 1.3 -4.36
v -0.12 1.3 -4.36
v -0.14 1.3 -4.36
v -0.04 1.3 -4.42
v -0.06 1.3 -4.42
v -0.12 1.3 -4.42
v -0.14 1.3 -4.42
v -0.06 1.3 -4.44
v -0.12 1.3 -4.44
v -0.04 1.28 -4.34
v -0.06 1.28 -4.34
v -0.12 1.28 -4.34
v -0.14 1.28 -4.34
v -0.04 1.28 -4.36
v -0.06 1.28 -4.36
v -0.12 1.28 -4.36
v -0.14 1.28 -4.36
v -0.04 1.28 -4.42
v -0.06 1.28 -4.42
v -0.12 1.28 -4.42
v -0.14 1.28 -4.42
v -0.04 1.28 -4.44
v -0.06 1.28 -4.44
v -0.12 1.28 -4.44
v -0.14 1.28 -4.44
v -0.04 1.26 -4.32
v -0.14 1.26 -4.32
v -0.02 1.26 -4.34
v -0.04 1.26 -4.34
v -0.14 1.26 -4.34
v -0.16 1.26 -4.34
v -0.02 1.26 -4.44
v -0.04 1.26 -4.44
v -0.14 1.26 -4.44
v -0.16 1.26 -4.44
v -0.04 1.26 -4.46
v -0.14 1.26 -4.46
v -0.02 1.24 -4.3
v -0.16 1.24 -4.3
v 0 1.24 -4.32
v -0.02 1.24 -4.32
v -0.04 1.24 -4.32
v -0.14 1.24 -4.32
v -0.16 1.24 -4.32
v -0.18 1.24 -4.32
v -0.02 1.24 -4.34
v -0.04 1.24 -4.34
v -0.14 1.24 -4.34
v -0.16 1.24 -4.34
v -0.02 1.24 -4.44
v -0.04 1.24 -4.44
v -0.14 1.24 -4.44
v -0.16 1.24 -4.44
v 0 1.24 -4.46
v -0.02 1.24 -4.46
v -0.04 1.24 -4.46
v -0.14 1.24 -4.46
v -0.16 1.24 -4.46
v -0.18 1.24 -4.46
v -0.02 1.24 -4.48
v -0.16 1.24 -4.48
v -0.02 1.02 -4.3
v -0.16 1.02 -4.3
v 0 1.02 -4.32
v -0.02 1.02 -4.32
v -0.16 1.02 -4.32
v -0.18 1.02 -4.32
v 0 1.02 -4.46
v -0.02 1.02 -4.46
v -0.16 1.02 -4.46
v -0.18 1.02 -4.46
v -0.02 1.02 -4.48
v -0.16 1.02 -4.48
v -0.02 1 -4.32
v -0.16 1 -4.32
v -0.02 1 -4.46
v -0.16 1 -4.46

# faces
f 3/3/1 2/3/1 1/3/1
f 4/3/1 2/3/1 3/3/1
f 5/1/1 4/1/1 3/1/1
f 6/1/1 4/1/1 5/1/1
f 11/3/1 8/3/1 7/3/1
f 12/3/1 8/3/1 11/3/1
f 15/3/1 10/3/1 9/3/1
f 16/3/1 10/3/1 15/3/1
f 17/3/1 14/3/1 13/3/1
f 18/3/1 14/3/1 17/3/1
f 19/1/1 16/1/1 15/1/1
f 20/1/1 16/1/1 19/1/1
f 21/1/1 18/1/1 17/1/1
f 22/1/1 18/1/1 21/1/1
f 23/1/1 21/1/1 20/1/1
f 24/1/1 21/1/1 23/1/1
f 28/3/1 26/3/1 25/3/1
f 29/3/1 26/3/1 28/3/1
f 32/3/1 28/3/1 27/3/1
f 32/3/1 30/3/1 29/3/1
f 32/3/1 29/3/1 28/3/1
f 33/3/1 30/3/1 32/3/1
f 35/3/1 32/3/1 31/3/1
f 36/3/1 32/3/1 35/3/1
f 37/3/1 34/3/1 33/3/1
f 38/3/1 34/3/1 37/3/1
f 42/2/1 40/2/1 39/2/1
f 43/2/1 40/2/1 42/2/1
f 45/3/1 42/3/1 41/3/1
f 46/3/1 42/3/1 45/3/1
f 47/3/1 44/3/1 43/3/1
f 48/3/1 44/3/1 47/3/1
f 49/2/2 50/2/2 52/2/2
f 52/2/2 50/2/2 53/2/2
f 51/3/2 52/3/2 55/3/2
f 55/3/2 52/3/2 56/3/2
f 53/3/2 54/3/2 57/3/2
f 57/3/2 54/3/2 58/3/2
f 59/3/2 60/3/2 62/3/2
f 62/3/2 60/3/2 63/3/2
f 61/3/2 62/3/2 66/3/2
f 63/3/2 64/3/2 66/3/2
f 62/3/2 63/3/2 66/3/2
f 66/3/2 64/3/2 67/3/2
f 65/3/2 66/3/2 69/3/2
f 69/3/2 66/3/2 70/3/2
f 67/3/2 68/3/2 71/3/2
f 71/3/2 68/3/2 72/3/2
f 73/3/2 74/3/2 77/3/2
f 77/3/2 74/3/2 78/3/2
f 75/3/2 76/3/2 81/3/2
f 81/3/2 76/3/2 82/3/2
f 79/3/2 80/3/2 83/3/2
f 83/3/2 80/3/2 84/3/2
f 81/1/2 82/1/2 85/1/2
f 85/1/2 82/1/2 86/1/2
f 83/1/2 84/1/2 87/1/2
f 87/1/2 84/1/2 88/1/2
f 86/1/2 87/1/2 89/1/2
f 89/1/2 87/1/2 90/1/2
f 91/3/2 92/3/2 93/3/2
f 93/3/2 92/3/2 94/3/2
f 93/1/2 94/1/2 95/1/2
f 95/1/2 94/1/2 96/1/2
f 100/3/3 98/3/3 97/3/3
f 101/1/3 99/1/3 98/1/3
f 101/3/3 98/3/3 100/3/3
f 102/1/3 99/1/3 101/1/3
f 106/3/3 104/3/3 103/3/3
f 107/1/3 105/1/3 104/1/3
f 107/3/3 104/3/3 106/3/3
f 108/1/3 105/1/3 107/1/3
f 112/3/3 111/3/3 110/3/3
f 113/3/3 111/3/3 112/3/3
f 116/1/3 109/1/3 108/1/3
f 117/1/3 109/1/3 116/1/3
f 118/3/3 115/3/3 114/3/3
f 119/1/3 116/1/3 115/1/3
f 119/3/3 115/3/3 118/3/3
f 120/1/3 116/1/3 119/1/3
f 124/3/3 122/3/3 121/3/3
f 125/3/3 122/3/3 124/3/3
f 127/3/3 124/3/3 123/3/3
f 128/3/3 127/3/3 126/3/3
f 129/3/3 124/3/3 127/3/3
f 129/3/3 127/3/3 128/3/3
f 130/3/3 124/3/3 129/3/3
f 131/3/3 124/3/3 130/3/3
f 133/3/3 132/3/3 131/3/3
f 134/3/3 132/3/3 133/3/3
f 138/3/3 136/3/3 135/3/3
f 139/3/3 136/3/3 138/3/3
f 140/2/3 138/2/3 137/2/3
f 141/2/3 138/2/3 140/2/3
f 143/3/3 142/3/3 141/3/3
f 144/3/3 142/3/3 143/3/3
f 145/3/4 146/3/4 148/3/4
f 148/3/4 146/3/4 149/3/4
f 147/2/4 148/2/4 150/2/4
f 150/2/4 148/2/4 151/2/4
f 151/3/4 152/3/4 153/3/4
f 153/3/4 152/3/4 154/3/4
f 155/3/4 156/3/4 158/3/4
f 158/3/4 156/3/4 159/3/4
f 157/3/4 158/3/4 161/3/4
f 160/3/4 161/3/4 162/3/4
f 161/3/4 158/3/4 163/3/4
f 162/3/4 161/3/4 163/3/4
f 163/3/4 158/3/4 164/3/4
f 164/3/4 158/3/4 165/3/4
f 165/3/4 166/3/4 167/3/4
f 167/3/4 166/3/4 168/3/4
f 169/3/4 170/3/4 172/3/4
f 170/1/4 171/1/4 173/1/4
f 172/3/4 170/3/4 173/3/4
f 173/1/4 171/1/4 174/1/4
f 176/3/4 177/3/4 178/3/4
f 178/3/4 177/3/4 179/3/4
f 174/1/4 175/1/4 182/1/4
f 182/1/4 175/1/4 183/1/4
f 180/3/4 181/3/4 184/3/4
f 181/1/4 182/1/4 185/1/4
f 184/3/4 181/3/4 185/3/4
f 185/1/4 182/1/4 186/1/4
f 187/3/4 188/3/4 190/3/4
f 188/1/4 189/1/4 191/1/4
f 190/3/4 188/3/4 191/3/4
f 191/1/4 189/1/4 192/1/4
f 195/2/5 194/2/5 193/2/5
f 196/2/5 194/2/5 195/2/5
f 200/3/5 198/3/5 197/3/5
f 201/3/5 198/3/5 200/3/5
f 203/3/5 200/3/5 199/3/5
f 204/3/5 200/3/5 203/3/5
f 205/3/5 202/3/5 201/3/5
f 206/3/5 202/3/5 205/3/5
f 207/3/5 205/3/5 204/3/5
f 208/3/5 205/3/5 207/3/5
f 213/3/5 210/3/5 209/3/5
f 214/3/5 210/3/5 213/3/5
f 215/3/5 212/3/5 211/3/5
f 216/3/5 212/3/5 215/3/5
f 221/3/5 218/3/5 217/3/5
f 222/3/5 218/3/5 221/3/5
f 223/3/5 220/3/5 219/3/5
f 224/3/5 220/3/5 223/3/5
f 228/3/5 226/3/5 225/3/5
f 229/3/5 226/3/5 228/3/5
f 231/3/5 228/3/5 227/3/5
f 232/3/5 228/3/5 231/3/5
f 233/3/5 230/3/5 229/3/5
f 234/3/5 230/3/5 233/3/5
f 235/3/5 233/3/5 232/3/5
f 236/3/5 233/3/5 235/3/5
f 240/3/5 238/3/5 237/3/5
f 241/3/5 238/3/5 240/3/5
f 242/3/5 238/3/5 241/3/5
f 243/3/5 238/3/5 242/3/5
f 245/3/5 240/3/5 239/3/5
f 245/3/5 241/3/5 240/3/5
f 246/3/5 241/3/5 245/3/5
f 247/3/5 244/3/5 243/3/5
f 247/3/5 243/3/5 242/3/5
f 248/3/5 244/3/5 247/3/5
f 249/3/5 245/3/5 239/3/5
f 252/3/5 244/3/5 248/3/5
f 253/3/5 250/3/5 249/3/5
f 253/3/5 249/3/5 239/3/5
f 254/3/5 250/3/5 253/3/5
f 255/3/5 250/3/5 254/3/5
f 256/3/5 252/3/5 251/3/5
f 257/3/5 244/3/5 252/3/5
f 257/3/5 252/3/5 256/3/5
f 258/3/5 244/3/5 257/3/5
f 259/3/5 255/3/5 254/3/5
f 259/3/5 256/3/5 255/3/5
f 259/3/5 257/3/5 256/3/5
f 260/3/5 257/3/5 259/3/5
f 261/1/6 262/1/6 264/1/6
f 264/1/6 262/1/6 265/1/6
f 263/1/6 264/1/6 267/1/6
f 267/1/6 264/1/6 268/1/6
f 265/1/6 266/1/6 269/1/6
f 269/1/6 266/1/6 270/1/6
f 268/1/6 269/1/6 271/1/6
f 271/1/6 269/1/6 272/1/6
f 273/1/6 274/1/6 275/1/6
f 275/1/6 274/1/6 276/1/6
