# MagicaVoxel @ Ephtracy

# group
o StorageBox-0

# material
mtllib Bunker - Free Sample-73-StorageBox-0.mtl
usemtl palette

# normals
vn -1 0 0
vn 1 0 0
vn 0 0 1
vn 0 0 -1
vn 0 -1 0
vn 0 1 0

# texcoords
vt 0.287109 0.5
vt 0.291016 0.5
vt 0.298828 0.5
vt 0.619141 0.5

# verts
v -0.88 1.06 -3.66
v -0.88 1.06 -3.68
v -0.88 1.06 -3.78
v -0.88 1.06 -3.8
v -0.88 1.08 -3.66
v -0.88 1.08 -3.68
v -0.88 1.08 -3.78
v -0.88 1.08 -3.8
v -0.88 1.18 -3.66
v -0.88 1.18 -3.8
v -0.88 1.2 -3.66
v -0.88 1.2 -3.8
v -0.74 1.06 -3.66
v -0.74 1.06 -3.68
v -0.74 1.06 -3.78
v -0.74 1.06 -3.8
v -0.74 1.08 -3.66
v -0.74 1.08 -3.68
v -0.74 1.08 -3.78
v -0.74 1.08 -3.8
v -0.74 1.1 -3.68
v -0.74 1.1 -3.7
v -0.74 1.1 -3.76
v -0.74 1.1 -3.8
v -0.74 1.12 -3.68
v -0.74 1.12 -3.7
v -0.74 1.12 -3.76
v -0.74 1.12 -3.78
v -0.74 1.14 -3.7
v -0.74 1.14 -3.76
v -0.74 1.14 -3.78
v -0.74 1.14 -3.8
v -0.74 1.16 -3.7
v -0.74 1.16 -3.76
v -0.74 1.18 -3.66
v -0.74 1.18 -3.8
v -0.74 1.2 -3.66
v -0.74 1.2 -3.8
v -0.88 1.06 -3.66
v -0.88 1.08 -3.66
v -0.88 1.18 -3.66
v -0.88 1.2 -3.66
v -0.86 1.06 -3.66
v -0.86 1.08 -3.66
v -0.84 1.12 -3.66
v -0.84 1.14 -3.66
v -0.82 1.1 -3.66
v -0.82 1.12 -3.66
v -0.8 1.12 -3.66
v -0.8 1.14 -3.66
v -0.78 1.1 -3.66
v -0.78 1.12 -3.66
v -0.76 1.06 -3.66
v -0.76 1.08 -3.66
v -0.74 1.06 -3.66
v -0.74 1.08 -3.66
v -0.74 1.18 -3.66
v -0.74 1.2 -3.66
v -0.88 1.06 -3.8
v -0.88 1.08 -3.8
v -0.88 1.18 -3.8
v -0.88 1.2 -3.8
v -0.86 1.06 -3.8
v -0.86 1.08 -3.8
v -0.84 1.12 -3.8
v -0.84 1.14 -3.8
v -0.82 1.1 -3.8
v -0.82 1.12 -3.8
v -0.8 1.12 -3.8
v -0.8 1.14 -3.8
v -0.78 1.1 -3.8
v -0.78 1.12 -3.8
v -0.76 1.06 -3.8
v -0.76 1.08 -3.8
v -0.76 1.1 -3.8
v -0.76 1.14 -3.8
v -0.74 1.06 -3.8
v -0.74 1.08 -3.8
v -0.74 1.1 -3.8
v -0.74 1.14 -3.8
v -0.74 1.18 -3.8
v -0.74 1.2 -3.8
v -0.88 1.06 -3.66
v -0.86 1.06 -3.66
v -0.76 1.06 -3.66
v -0.74 1.06 -3.66
v -0.88 1.06 -3.68
v -0.86 1.06 -3.68
v -0.76 1.06 -3.68
v -0.74 1.06 -3.68
v -0.88 1.06 -3.78
v -0.86 1.06 -3.78
v -0.76 1.06 -3.78
v -0.74 1.06 -3.78
v -0.88 1.06 -3.8
v -0.86 1.06 -3.8
v -0.76 1.06 -3.8
v -0.74 1.06 -3.8
v -0.88 1.2 -3.66
v -0.74 1.2 -3.66
v -0.88 1.2 -3.8
v -0.74 1.2 -3.8

# faces
f 5/1/1 2/1/1 1/1/1
f 6/3/1 3/3/1 2/3/1
f 6/1/1 2/1/1 5/1/1
f 7/1/1 4/1/1 3/1/1
f 7/3/1 3/3/1 6/3/1
f 8/1/1 4/1/1 7/1/1
f 9/2/1 6/2/1 5/2/1
f 9/2/1 7/2/1 6/2/1
f 9/2/1 8/2/1 7/2/1
f 10/2/1 8/2/1 9/2/1
f 11/1/1 10/1/1 9/1/1
f 12/1/1 10/1/1 11/1/1
f 13/1/2 14/1/2 17/1/2
f 14/3/2 15/3/2 18/3/2
f 17/1/2 14/1/2 18/1/2
f 15/1/2 16/1/2 19/1/2
f 18/3/2 15/3/2 19/3/2
f 19/1/2 16/1/2 20/1/2
f 17/2/2 18/2/2 21/2/2
f 18/2/2 19/2/2 21/2/2
f 19/2/2 20/2/2 21/2/2
f 21/2/2 20/2/2 22/2/2
f 22/2/2 20/2/2 23/2/2
f 23/2/2 20/2/2 24/2/2
f 17/2/2 21/2/2 25/2/2
f 21/3/2 22/3/2 25/3/2
f 22/2/2 23/2/2 26/2/2
f 25/3/2 22/3/2 26/3/2
f 23/3/2 24/3/2 27/3/2
f 26/2/2 23/2/2 27/2/2
f 27/3/2 24/3/2 28/3/2
f 25/2/2 26/2/2 29/2/2
f 26/2/2 27/2/2 29/2/2
f 27/2/2 28/2/2 29/2/2
f 29/2/2 28/2/2 30/2/2
f 28/3/2 24/3/2 31/3/2
f 30/2/2 28/2/2 31/2/2
f 31/3/2 24/3/2 32/3/2
f 29/4/2 30/4/2 33/4/2
f 25/2/2 29/2/2 33/2/2
f 31/2/2 32/2/2 34/2/2
f 33/4/2 30/4/2 34/4/2
f 30/2/2 31/2/2 34/2/2
f 17/2/2 25/2/2 35/2/2
f 25/2/2 33/2/2 35/2/2
f 33/2/2 34/2/2 35/2/2
f 34/2/2 32/2/2 36/2/2
f 35/2/2 34/2/2 36/2/2
f 35/1/2 36/1/2 37/1/2
f 37/1/2 36/1/2 38/1/2
f 43/1/3 40/1/3 39/1/3
f 44/2/3 41/2/3 40/2/3
f 44/1/3 40/1/3 43/1/3
f 45/2/3 41/2/3 44/2/3
f 46/2/3 41/2/3 45/2/3
f 47/2/3 45/2/3 44/2/3
f 48/3/3 46/3/3 45/3/3
f 48/2/3 45/2/3 47/2/3
f 49/3/3 48/3/3 47/3/3
f 49/3/3 46/3/3 48/3/3
f 50/2/3 41/2/3 46/2/3
f 50/3/3 46/3/3 49/3/3
f 51/3/3 49/3/3 47/3/3
f 51/2/3 47/2/3 44/2/3
f 52/2/3 50/2/3 49/2/3
f 52/3/3 49/3/3 51/3/3
f 53/3/3 44/3/3 43/3/3
f 54/2/3 51/2/3 44/2/3
f 54/3/3 44/3/3 53/3/3
f 54/2/3 52/2/3 51/2/3
f 55/1/3 54/1/3 53/1/3
f 56/2/3 52/2/3 54/2/3
f 56/1/3 54/1/3 55/1/3
f 57/1/3 42/1/3 41/1/3
f 57/2/3 52/2/3 56/2/3
f 57/2/3 50/2/3 52/2/3
f 57/2/3 41/2/3 50/2/3
f 58/1/3 42/1/3 57/1/3
f 59/1/4 60/1/4 63/1/4
f 60/2/4 61/2/4 64/2/4
f 63/1/4 60/1/4 64/1/4
f 64/2/4 61/2/4 65/2/4
f 65/2/4 61/2/4 66/2/4
f 64/2/4 65/2/4 67/2/4
f 65/3/4 66/3/4 68/3/4
f 67/2/4 65/2/4 68/2/4
f 67/3/4 68/3/4 69/3/4
f 68/3/4 66/3/4 69/3/4
f 66/2/4 61/2/4 70/2/4
f 69/3/4 66/3/4 70/3/4
f 67/3/4 69/3/4 71/3/4
f 64/2/4 67/2/4 71/2/4
f 69/2/4 70/2/4 72/2/4
f 71/3/4 69/3/4 72/3/4
f 63/3/4 64/3/4 73/3/4
f 64/2/4 71/2/4 74/2/4
f 73/3/4 64/3/4 74/3/4
f 71/2/4 72/2/4 74/2/4
f 74/2/4 72/2/4 75/2/4
f 72/2/4 70/2/4 76/2/4
f 75/2/4 72/2/4 76/2/4
f 70/2/4 61/2/4 76/2/4
f 73/1/4 74/1/4 77/1/4
f 74/2/4 75/2/4 78/2/4
f 77/1/4 74/1/4 78/1/4
f 75/3/4 76/3/4 79/3/4
f 78/2/4 75/2/4 79/2/4
f 76/2/4 61/2/4 80/2/4
f 79/3/4 76/3/4 80/3/4
f 61/1/4 62/1/4 81/1/4
f 80/2/4 61/2/4 81/2/4
f 81/1/4 62/1/4 82/1/4
f 87/1/5 84/1/5 83/1/5
f 88/3/5 85/3/5 84/3/5
f 88/1/5 84/1/5 87/1/5
f 89/1/5 86/1/5 85/1/5
f 89/3/5 85/3/5 88/3/5
f 90/1/5 86/1/5 89/1/5
f 91/3/5 88/3/5 87/3/5
f 92/2/5 89/2/5 88/2/5
f 92/3/5 88/3/5 91/3/5
f 93/3/5 90/3/5 89/3/5
f 93/2/5 89/2/5 92/2/5
f 94/3/5 90/3/5 93/3/5
f 95/1/5 92/1/5 91/1/5
f 96/3/5 93/3/5 92/3/5
f 96/1/5 92/1/5 95/1/5
f 97/1/5 94/1/5 93/1/5
f 97/3/5 93/3/5 96/3/5
f 98/1/5 94/1/5 97/1/5
f 99/1/6 100/1/6 101/1/6
f 101/1/6 100/1/6 102/1/6
