# MagicaVoxel @ Ephtracy

# group
o Junk-0

# material
mtllib Bunker - Free Sample-79-Junk-0.mtl
usemtl palette

# normals
vn -1 0 0
vn 1 0 0
vn 0 0 1
vn 0 0 -1
vn 0 -1 0
vn 0 1 0

# texcoords
vt 0.287109 0.5
vt 0.626953 0.5

# verts
v 0.24 1 -5.16
v 0.24 1 -5.2
v 0.24 1 -5.22
v 0.24 1.02 -5.14
v 0.24 1.02 -5.16
v 0.24 1.02 -5.22
v 0.24 1.02 -5.28
v 0.24 1.04 -5.14
v 0.24 1.04 -5.16
v 0.24 1.04 -5.22
v 0.24 1.04 -5.28
v 0.24 1.06 -5.16
v 0.24 1.06 -5.2
v 0.24 1.06 -5.22
v 0.26 1 -5.14
v 0.26 1 -5.16
v 0.26 1 -5.22
v 0.26 1 -5.28
v 0.26 1.02 -5.14
v 0.26 1.02 -5.16
v 0.26 1.02 -5.22
v 0.26 1.02 -5.28
v 0.26 1.04 -5.14
v 0.26 1.04 -5.16
v 0.26 1.04 -5.22
v 0.26 1.04 -5.28
v 0.26 1.06 -5.14
v 0.26 1.06 -5.16
v 0.26 1.06 -5.22
v 0.26 1.06 -5.28
v 0.28 1.02 -5.26
v 0.28 1.02 -5.28
v 0.28 1.04 -5.26
v 0.28 1.04 -5.28
v 0.32 1 -5.12
v 0.32 1 -5.14
v 0.32 1.02 -5.1
v 0.32 1.02 -5.12
v 0.32 1.02 -5.14
v 0.32 1.02 -5.16
v 0.32 1.04 -5.1
v 0.32 1.04 -5.12
v 0.32 1.04 -5.14
v 0.32 1.04 -5.16
v 0.32 1.06 -5.12
v 0.32 1.06 -5.14
v 0.34 1 -5.1
v 0.34 1 -5.12
v 0.34 1 -5.14
v 0.34 1 -5.16
v 0.34 1.02 -5.1
v 0.34 1.02 -5.12
v 0.34 1.02 -5.14
v 0.34 1.02 -5.16
v 0.34 1.04 -5.1
v 0.34 1.04 -5.12
v 0.34 1.04 -5.14
v 0.34 1.04 -5.16
v 0.34 1.06 -5.1
v 0.34 1.06 -5.12
v 0.34 1.06 -5.14
v 0.34 1.06 -5.16
v 0.38 1 -5.2
v 0.38 1 -5.22
v 0.38 1.02 -5.18
v 0.38 1.02 -5.2
v 0.38 1.02 -5.22
v 0.38 1.02 -5.24
v 0.38 1.06 -5.18
v 0.38 1.06 -5.24
v 0.38 1.08 -5.18
v 0.38 1.08 -5.2
v 0.38 1.08 -5.22
v 0.38 1.08 -5.24
v 0.38 1.14 -5.2
v 0.38 1.14 -5.22
v 0.4 1 -5.18
v 0.4 1 -5.2
v 0.4 1 -5.22
v 0.4 1 -5.24
v 0.4 1.02 -5.18
v 0.4 1.02 -5.2
v 0.4 1.02 -5.22
v 0.4 1.02 -5.24
v 0.4 1.08 -5.18
v 0.4 1.08 -5.2
v 0.4 1.08 -5.22
v 0.4 1.08 -5.24
v 0.4 1.14 -5.18
v 0.4 1.14 -5.2
v 0.4 1.14 -5.22
v 0.4 1.14 -5.24
v 0.42 1.12 -5.2
v 0.42 1.12 -5.22
v 0.42 1.14 -5.2
v 0.42 1.14 -5.22
v 0.26 1.02 -5.26
v 0.26 1.02 -5.28
v 0.26 1.04 -5.26
v 0.26 1.04 -5.28
v 0.28 1 -5.14
v 0.28 1 -5.16
v 0.28 1 -5.22
v 0.28 1 -5.28
v 0.28 1.02 -5.14
v 0.28 1.02 -5.16
v 0.28 1.02 -5.22
v 0.28 1.02 -5.28
v 0.28 1.04 -5.14
v 0.28 1.04 -5.16
v 0.28 1.04 -5.22
v 0.28 1.04 -5.28
v 0.28 1.06 -5.14
v 0.28 1.06 -5.16
v 0.28 1.06 -5.22
v 0.28 1.06 -5.28
v 0.3 1 -5.16
v 0.3 1 -5.2
v 0.3 1 -5.22
v 0.3 1.02 -5.14
v 0.3 1.02 -5.16
v 0.3 1.02 -5.22
v 0.3 1.02 -5.28
v 0.3 1.04 -5.14
v 0.3 1.04 -5.16
v 0.3 1.04 -5.22
v 0.3 1.04 -5.28
v 0.3 1.06 -5.16
v 0.3 1.06 -5.2
v 0.3 1.06 -5.22
v 0.4 1 -5.1
v 0.4 1 -5.12
v 0.4 1 -5.14
v 0.4 1 -5.16
v 0.4 1.02 -5.1
v 0.4 1.02 -5.12
v 0.4 1.02 -5.14
v 0.4 1.02 -5.16
v 0.4 1.04 -5.1
v 0.4 1.04 -5.12
v 0.4 1.04 -5.14
v 0.4 1.04 -5.16
v 0.4 1.06 -5.1
v 0.4 1.06 -5.12
v 0.4 1.06 -5.14
v 0.4 1.06 -5.16
v 0.4 1.12 -5.2
v 0.4 1.12 -5.22
v 0.4 1.14 -5.2
v 0.4 1.14 -5.22
v 0.42 1 -5.18
v 0.42 1 -5.2
v 0.42 1 -5.22
v 0.42 1 -5.24
v 0.42 1.02 -5.18
v 0.42 1.02 -5.2
v 0.42 1.02 -5.22
v 0.42 1.02 -5.24
v 0.42 1.08 -5.18
v 0.42 1.08 -5.2
v 0.42 1.08 -5.22
v 0.42 1.08 -5.24
v 0.42 1.14 -5.18
v 0.42 1.14 -5.2
v 0.42 1.14 -5.22
v 0.42 1.14 -5.24
v 0.44 1 -5.2
v 0.44 1 -5.22
v 0.44 1.02 -5.12
v 0.44 1.02 -5.14
v 0.44 1.02 -5.18
v 0.44 1.02 -5.2
v 0.44 1.02 -5.22
v 0.44 1.02 -5.24
v 0.44 1.04 -5.12
v 0.44 1.04 -5.14
v 0.44 1.06 -5.18
v 0.44 1.06 -5.24
v 0.44 1.08 -5.18
v 0.44 1.08 -5.2
v 0.44 1.08 -5.22
v 0.44 1.08 -5.24
v 0.44 1.14 -5.2
v 0.44 1.14 -5.22
v 0.46 1 -5.12
v 0.46 1 -5.14
v 0.46 1.02 -5.1
v 0.46 1.02 -5.12
v 0.46 1.02 -5.14
v 0.46 1.02 -5.16
v 0.46 1.04 -5.1
v 0.46 1.04 -5.12
v 0.46 1.04 -5.14
v 0.46 1.04 -5.16
v 0.46 1.06 -5.12
v 0.46 1.06 -5.14
v 0.32 1.02 -5.1
v 0.32 1.04 -5.1
v 0.34 1 -5.1
v 0.34 1.02 -5.1
v 0.34 1.04 -5.1
v 0.34 1.06 -5.1
v 0.38 1 -5.1
v 0.38 1.06 -5.1
v 0.4 1 -5.1
v 0.4 1.02 -5.1
v 0.4 1.04 -5.1
v 0.4 1.06 -5.1
v 0.46 1.02 -5.1
v 0.46 1.04 -5.1
v 0.32 1 -5.12
v 0.32 1.02 -5.12
v 0.32 1.04 -5.12
v 0.32 1.06 -5.12
v 0.34 1 -5.12
v 0.34 1.02 -5.12
v 0.34 1.04 -5.12
v 0.34 1.06 -5.12
v 0.4 1 -5.12
v 0.4 1.02 -5.12
v 0.4 1.04 -5.12
v 0.4 1.06 -5.12
v 0.46 1 -5.12
v 0.46 1.02 -5.12
v 0.46 1.04 -5.12
v 0.46 1.06 -5.12
v 0.24 1.02 -5.14
v 0.24 1.04 -5.14
v 0.26 1 -5.14
v 0.26 1.02 -5.14
v 0.26 1.04 -5.14
v 0.26 1.06 -5.14
v 0.28 1 -5.14
v 0.28 1.02 -5.14
v 0.28 1.04 -5.14
v 0.28 1.06 -5.14
v 0.3 1.02 -5.14
v 0.3 1.04 -5.14
v 0.44 1.02 -5.14
v 0.44 1.04 -5.14
v 0.46 1.02 -5.14
v 0.46 1.04 -5.14
v 0.24 1 -5.16
v 0.24 1.02 -5.16
v 0.24 1.04 -5.16
v 0.24 1.06 -5.16
v 0.26 1 -5.16
v 0.26 1.02 -5.16
v 0.26 1.04 -5.16
v 0.26 1.06 -5.16
v 0.28 1 -5.16
v 0.28 1.02 -5.16
v 0.28 1.04 -5.16
v 0.28 1.06 -5.16
v 0.3 1 -5.16
v 0.3 1.02 -5.16
v 0.3 1.04 -5.16
v 0.3 1.06 -5.16
v 0.38 1.02 -5.18
v 0.38 1.06 -5.18
v 0.38 1.08 -5.18
v 0.4 1 -5.18
v 0.4 1.02 -5.18
v 0.4 1.08 -5.18
v 0.4 1.14 -5.18
v 0.42 1 -5.18
v 0.42 1.02 -5.18
v 0.42 1.08 -5.18
v 0.42 1.14 -5.18
v 0.44 1.02 -5.18
v 0.44 1.06 -5.18
v 0.44 1.08 -5.18
v 0.38 1 -5.2
v 0.38 1.02 -5.2
v 0.38 1.08 -5.2
v 0.38 1.14 -5.2
v 0.4 1 -5.2
v 0.4 1.02 -5.2
v 0.4 1.08 -5.2
v 0.4 1.14 -5.2
v 0.42 1 -5.2
v 0.42 1.02 -5.2
v 0.42 1.08 -5.2
v 0.42 1.14 -5.2
v 0.44 1 -5.2
v 0.44 1.02 -5.2
v 0.44 1.08 -5.2
v 0.44 1.14 -5.2
v 0.4 1.12 -5.22
v 0.4 1.14 -5.22
v 0.42 1.12 -5.22
v 0.42 1.14 -5.22
v 0.44 1.02 -5.12
v 0.44 1.04 -5.12
v 0.46 1.02 -5.12
v 0.46 1.04 -5.12
v 0.32 1 -5.14
v 0.32 1.02 -5.14
v 0.32 1.04 -5.14
v 0.32 1.06 -5.14
v 0.34 1 -5.14
v 0.34 1.02 -5.14
v 0.34 1.04 -5.14
v 0.34 1.06 -5.14
v 0.4 1 -5.14
v 0.4 1.02 -5.14
v 0.4 1.04 -5.14
v 0.4 1.06 -5.14
v 0.46 1 -5.14
v 0.46 1.02 -5.14
v 0.46 1.04 -5.14
v 0.46 1.06 -5.14
v 0.32 1.02 -5.16
v 0.32 1.04 -5.16
v 0.34 1 -5.16
v 0.34 1.02 -5.16
v 0.34 1.04 -5.16
v 0.34 1.06 -5.16
v 0.38 1 -5.16
v 0.38 1.06 -5.16
v 0.4 1 -5.16
v 0.4 1.02 -5.16
v 0.4 1.04 -5.16
v 0.4 1.06 -5.16
v 0.46 1.02 -5.16
v 0.46 1.04 -5.16
v 0.4 1.12 -5.2
v 0.4 1.14 -5.2
v 0.42 1.12 -5.2
v 0.42 1.14 -5.2
v 0.24 1 -5.22
v 0.24 1.02 -5.22
v 0.24 1.04 -5.22
v 0.24 1.06 -5.22
v 0.26 1 -5.22
v 0.26 1.02 -5.22
v 0.26 1.04 -5.22
v 0.26 1.06 -5.22
v 0.28 1 -5.22
v 0.28 1.02 -5.22
v 0.28 1.04 -5.22
v 0.28 1.06 -5.22
v 0.3 1 -5.22
v 0.3 1.02 -5.22
v 0.3 1.04 -5.22
v 0.3 1.06 -5.22
v 0.38 1 -5.22
v 0.38 1.02 -5.22
v 0.38 1.08 -5.22
v 0.38 1.14 -5.22
v 0.4 1 -5.22
v 0.4 1.02 -5.22
v 0.4 1.08 -5.22
v 0.4 1.14 -5.22
v 0.42 1 -5.22
v 0.42 1.02 -5.22
v 0.42 1.08 -5.22
v 0.42 1.14 -5.22
v 0.44 1 -5.22
v 0.44 1.02 -5.22
v 0.44 1.08 -5.22
v 0.44 1.14 -5.22
v 0.38 1.02 -5.24
v 0.38 1.06 -5.24
v 0.38 1.08 -5.24
v 0.4 1 -5.24
v 0.4 1.02 -5.24
v 0.4 1.08 -5.24
v 0.4 1.14 -5.24
v 0.42 1 -5.24
v 0.42 1.02 -5.24
v 0.42 1.08 -5.24
v 0.42 1.14 -5.24
v 0.44 1.02 -5.24
v 0.44 1.06 -5.24
v 0.44 1.08 -5.24
v 0.26 1.02 -5.26
v 0.26 1.04 -5.26
v 0.28 1.02 -5.26
v 0.28 1.04 -5.26
v 0.24 1.02 -5.28
v 0.24 1.04 -5.28
v 0.26 1 -5.28
v 0.26 1.02 -5.28
v 0.26 1.04 -5.28
v 0.26 1.06 -5.28
v 0.28 1 -5.28
v 0.28 1.02 -5.28
v 0.28 1.04 -5.28
v 0.28 1.06 -5.28
v 0.3 1.02 -5.28
v 0.3 1.04 -5.28
v 0.34 1 -5.1
v 0.38 1 -5.1
v 0.4 1 -5.1
v 0.32 1 -5.12
v 0.34 1 -5.12
v 0.4 1 -5.12
v 0.46 1 -5.12
v 0.26 1 -5.14
v 0.28 1 -5.14
v 0.32 1 -5.14
v 0.34 1 -5.14
v 0.4 1 -5.14
v 0.46 1 -5.14
v 0.24 1 -5.16
v 0.26 1 -5.16
v 0.28 1 -5.16
v 0.3 1 -5.16
v 0.34 1 -5.16
v 0.38 1 -5.16
v 0.4 1 -5.16
v 0.4 1 -5.18
v 0.42 1 -5.18
v 0.24 1 -5.2
v 0.3 1 -5.2
v 0.38 1 -5.2
v 0.4 1 -5.2
v 0.42 1 -5.2
v 0.44 1 -5.2
v 0.24 1 -5.22
v 0.26 1 -5.22
v 0.28 1 -5.22
v 0.3 1 -5.22
v 0.38 1 -5.22
v 0.4 1 -5.22
v 0.42 1 -5.22
v 0.44 1 -5.22
v 0.4 1 -5.24
v 0.42 1 -5.24
v 0.26 1 -5.28
v 0.28 1 -5.28
v 0.32 1.02 -5.1
v 0.34 1.02 -5.1
v 0.4 1.02 -5.1
v 0.46 1.02 -5.1
v 0.32 1.02 -5.12
v 0.34 1.02 -5.12
v 0.4 1.02 -5.12
v 0.46 1.02 -5.12
v 0.24 1.02 -5.14
v 0.26 1.02 -5.14
v 0.28 1.02 -5.14
v 0.3 1.02 -5.14
v 0.32 1.02 -5.14
v 0.34 1.02 -5.14
v 0.4 1.02 -5.14
v 0.46 1.02 -5.14
v 0.24 1.02 -5.16
v 0.26 1.02 -5.16
v 0.28 1.02 -5.16
v 0.3 1.02 -5.16
v 0.32 1.02 -5.16
v 0.34 1.02 -5.16
v 0.4 1.02 -5.16
v 0.46 1.02 -5.16
v 0.38 1.02 -5.18
v 0.4 1.02 -5.18
v 0.42 1.02 -5.18
v 0.44 1.02 -5.18
v 0.38 1.02 -5.2
v 0.4 1.02 -5.2
v 0.42 1.02 -5.2
v 0.44 1.02 -5.2
v 0.24 1.02 -5.22
v 0.26 1.02 -5.22
v 0.28 1.02 -5.22
v 0.3 1.02 -5.22
v 0.38 1.02 -5.22
v 0.4 1.02 -5.22
v 0.42 1.02 -5.22
v 0.44 1.02 -5.22
v 0.38 1.02 -5.24
v 0.4 1.02 -5.24
v 0.42 1.02 -5.24
v 0.44 1.02 -5.24
v 0.24 1.02 -5.28
v 0.26 1.02 -5.28
v 0.28 1.02 -5.28
v 0.3 1.02 -5.28
v 0.44 1.04 -5.12
v 0.46 1.04 -5.12
v 0.44 1.04 -5.14
v 0.46 1.04 -5.14
v 0.26 1.04 -5.26
v 0.28 1.04 -5.26
v 0.26 1.04 -5.28
v 0.28 1.04 -5.28
v 0.44 1.02 -5.12
v 0.46 1.02 -5.12
v 0.44 1.02 -5.14
v 0.46 1.02 -5.14
v 0.26 1.02 -5.26
v 0.28 1.02 -5.26
v 0.26 1.02 -5.28
v 0.28 1.02 -5.28
v 0.32 1.04 -5.1
v 0.34 1.04 -5.1
v 0.4 1.04 -5.1
v 0.46 1.04 -5.1
v 0.32 1.04 -5.12
v 0.34 1.04 -5.12
v 0.4 1.04 -5.12
v 0.46 1.04 -5.12
v 0.24 1.04 -5.14
v 0.26 1.04 -5.14
v 0.28 1.04 -5.14
v 0.3 1.04 -5.14
v 0.32 1.04 -5.14
v 0.34 1.04 -5.14
v 0.4 1.04 -5.14
v 0.46 1.04 -5.14
v 0.24 1.04 -5.16
v 0.26 1.04 -5.16
v 0.28 1.04 -5.16
v 0.3 1.04 -5.16
v 0.32 1.04 -5.16
v 0.34 1.04 -5.16
v 0.4 1.04 -5.16
v 0.46 1.04 -5.16
v 0.24 1.04 -5.22
v 0.26 1.04 -5.22
v 0.28 1.04 -5.22
v 0.3 1.04 -5.22
v 0.24 1.04 -5.28
v 0.26 1.04 -5.28
v 0.28 1.04 -5.28
v 0.3 1.04 -5.28
v 0.34 1.06 -5.1
v 0.38 1.06 -5.1
v 0.4 1.06 -5.1
v 0.32 1.06 -5.12
v 0.34 1.06 -5.12
v 0.4 1.06 -5.12
v 0.46 1.06 -5.12
v 0.26 1.06 -5.14
v 0.28 1.06 -5.14
v 0.32 1.06 -5.14
v 0.34 1.06 -5.14
v 0.4 1.06 -5.14
v 0.46 1.06 -5.14
v 0.24 1.06 -5.16
v 0.26 1.06 -5.16
v 0.28 1.06 -5.16
v 0.3 1.06 -5.16
v 0.34 1.06 -5.16
v 0.38 1.06 -5.16
v 0.4 1.06 -5.16
v 0.24 1.06 -5.2
v 0.3 1.06 -5.2
v 0.24 1.06 -5.22
v 0.26 1.06 -5.22
v 0.28 1.06 -5.22
v 0.3 1.06 -5.22
v 0.26 1.06 -5.28
v 0.28 1.06 -5.28
v 0.38 1.08 -5.18
v 0.4 1.08 -5.18
v 0.42 1.08 -5.18
v 0.44 1.08 -5.18
v 0.38 1.08 -5.2
v 0.4 1.08 -5.2
v 0.42 1.08 -5.2
v 0.44 1.08 -5.2
v 0.38 1.08 -5.22
v 0.4 1.08 -5.22
v 0.42 1.08 -5.22
v 0.44 1.08 -5.22
v 0.38 1.08 -5.24
v 0.4 1.08 -5.24
v 0.42 1.08 -5.24
v 0.44 1.08 -5.24
v 0.4 1.12 -5.2
v 0.42 1.12 -5.2
v 0.4 1.12 -5.22
v 0.42 1.12 -5.22
v 0.4 1.14 -5.18
v 0.42 1.14 -5.18
v 0.38 1.14 -5.2
v 0.4 1.14 -5.2
v 0.42 1.14 -5.2
v 0.44 1.14 -5.2
v 0.38 1.14 -5.22
v 0.4 1.14 -5.22
v 0.42 1.14 -5.22
v 0.44 1.14 -5.22
v 0.4 1.14 -5.24
v 0.42 1.14 -5.24

# faces
f 5/2/1 2/2/1 1/2/1
f 6/1/1 3/1/1 2/1/1
f 8/2/1 5/2/1 4/2/1
f 9/2/1 2/2/1 5/2/1
f 9/2/1 5/2/1 8/2/1
f 10/2/1 7/2/1 6/2/1
f 10/1/1 6/1/1 2/1/1
f 11/2/1 7/2/1 10/2/1
f 12/2/1 2/2/1 9/2/1
f 13/1/1 10/1/1 2/1/1
f 13/2/1 2/2/1 12/2/1
f 14/1/1 10/1/1 13/1/1
f 19/2/1 16/2/1 15/2/1
f 20/2/1 16/2/1 19/2/1
f 21/2/1 18/2/1 17/2/1
f 22/2/1 18/2/1 21/2/1
f 27/2/1 24/2/1 23/2/1
f 28/2/1 24/2/1 27/2/1
f 29/2/1 26/2/1 25/2/1
f 30/2/1 26/2/1 29/2/1
f 33/2/1 32/2/1 31/2/1
f 34/2/1 32/2/1 33/2/1
f 38/2/1 36/2/1 35/2/1
f 39/2/1 36/2/1 38/2/1
f 41/2/1 38/2/1 37/2/1
f 41/2/1 40/2/1 39/2/1
f 41/2/1 39/2/1 38/2/1
f 42/2/1 40/2/1 41/2/1
f 43/2/1 40/2/1 42/2/1
f 44/2/1 40/2/1 43/2/1
f 45/2/1 43/2/1 42/2/1
f 46/2/1 43/2/1 45/2/1
f 51/2/1 48/2/1 47/2/1
f 52/2/1 48/2/1 51/2/1
f 53/2/1 50/2/1 49/2/1
f 54/2/1 50/2/1 53/2/1
f 59/2/1 56/2/1 55/2/1
f 60/2/1 56/2/1 59/2/1
f 61/2/1 58/2/1 57/2/1
f 62/2/1 58/2/1 61/2/1
f 66/2/1 64/2/1 63/2/1
f 67/2/1 64/2/1 66/2/1
f 69/2/1 66/2/1 65/2/1
f 69/2/1 68/2/1 67/2/1
f 69/2/1 67/2/1 66/2/1
f 70/2/1 68/2/1 69/2/1
f 71/1/1 70/1/1 69/1/1
f 72/1/1 70/1/1 71/1/1
f 73/1/1 70/1/1 72/1/1
f 74/1/1 70/1/1 73/1/1
f 75/2/1 73/2/1 72/2/1
f 76/2/1 73/2/1 75/2/1
f 81/2/1 78/2/1 77/2/1
f 82/2/1 78/2/1 81/2/1
f 83/2/1 80/2/1 79/2/1
f 84/2/1 80/2/1 83/2/1
f 89/2/1 86/2/1 85/2/1
f 90/2/1 86/2/1 89/2/1
f 91/2/1 88/2/1 87/2/1
f 92/2/1 88/2/1 91/2/1
f 95/2/1 94/2/1 93/2/1
f 96/2/1 94/2/1 95/2/1
f 97/2/2 98/2/2 99/2/2
f 99/2/2 98/2/2 100/2/2
f 101/2/2 102/2/2 105/2/2
f 105/2/2 102/2/2 106/2/2
f 103/2/2 104/2/2 107/2/2
f 107/2/2 104/2/2 108/2/2
f 109/2/2 110/2/2 113/2/2
f 113/2/2 110/2/2 114/2/2
f 111/2/2 112/2/2 115/2/2
f 115/2/2 112/2/2 116/2/2
f 117/2/2 118/2/2 121/2/2
f 118/1/2 119/1/2 122/1/2
f 120/2/2 121/2/2 124/2/2
f 121/2/2 118/2/2 125/2/2
f 124/2/2 121/2/2 125/2/2
f 122/2/2 123/2/2 126/2/2
f 118/1/2 122/1/2 126/1/2
f 126/2/2 123/2/2 127/2/2
f 125/2/2 118/2/2 128/2/2
f 118/1/2 126/1/2 129/1/2
f 128/2/2 118/2/2 129/2/2
f 129/1/2 126/1/2 130/1/2
f 131/1/2 132/1/2 135/1/2
f 135/1/2 132/1/2 136/1/2
f 133/1/2 134/1/2 137/1/2
f 137/1/2 134/1/2 138/1/2
f 139/1/2 140/1/2 143/1/2
f 143/1/2 140/1/2 144/1/2
f 141/1/2 142/1/2 145/1/2
f 145/1/2 142/1/2 146/1/2
f 147/2/2 148/2/2 149/2/2
f 149/2/2 148/2/2 150/2/2
f 151/2/2 152/2/2 155/2/2
f 155/2/2 152/2/2 156/2/2
f 153/2/2 154/2/2 157/2/2
f 157/2/2 154/2/2 158/2/2
f 159/2/2 160/2/2 163/2/2
f 163/2/2 160/2/2 164/2/2
f 161/2/2 162/2/2 165/2/2
f 165/2/2 162/2/2 166/2/2
f 167/2/2 168/2/2 172/2/2
f 172/2/2 168/2/2 173/2/2
f 169/2/2 170/2/2 175/2/2
f 175/2/2 170/2/2 176/2/2
f 173/2/2 174/2/2 177/2/2
f 171/2/2 172/2/2 177/2/2
f 172/2/2 173/2/2 177/2/2
f 177/2/2 174/2/2 178/2/2
f 177/1/2 178/1/2 179/1/2
f 179/1/2 178/1/2 180/1/2
f 180/1/2 178/1/2 181/1/2
f 181/1/2 178/1/2 182/1/2
f 180/2/2 181/2/2 183/2/2
f 183/2/2 181/2/2 184/2/2
f 185/2/2 186/2/2 188/2/2
f 188/2/2 186/2/2 189/2/2
f 187/2/2 188/2/2 191/2/2
f 191/2/2 188/2/2 192/2/2
f 189/2/2 190/2/2 193/2/2
f 193/2/2 190/2/2 194/2/2
f 192/2/2 193/2/2 195/2/2
f 195/2/2 193/2/2 196/2/2
f 200/2/3 198/2/3 197/2/3
f 201/2/3 198/2/3 200/2/3
f 203/2/3 200/2/3 199/2/3
f 203/2/3 202/2/3 201/2/3
f 203/2/3 201/2/3 200/2/3
f 204/2/3 202/2/3 203/2/3
f 205/1/3 204/1/3 203/1/3
f 206/1/3 204/1/3 205/1/3
f 207/1/3 204/1/3 206/1/3
f 208/1/3 204/1/3 207/1/3
f 209/2/3 207/2/3 206/2/3
f 210/2/3 207/2/3 209/2/3
f 215/2/3 212/2/3 211/2/3
f 216/2/3 212/2/3 215/2/3
f 217/2/3 214/2/3 213/2/3
f 218/2/3 214/2/3 217/2/3
f 223/2/3 220/2/3 219/2/3
f 224/2/3 220/2/3 223/2/3
f 225/2/3 222/2/3 221/2/3
f 226/2/3 222/2/3 225/2/3
f 230/2/3 228/2/3 227/2/3
f 231/2/3 228/2/3 230/2/3
f 233/2/3 230/2/3 229/2/3
f 233/2/3 232/2/3 231/2/3
f 233/2/3 231/2/3 230/2/3
f 234/2/3 232/2/3 233/2/3
f 235/2/3 232/2/3 234/2/3
f 236/2/3 232/2/3 235/2/3
f 237/2/3 235/2/3 234/2/3
f 238/2/3 235/2/3 237/2/3
f 241/2/3 240/2/3 239/2/3
f 242/2/3 240/2/3 241/2/3
f 247/2/3 244/2/3 243/2/3
f 248/2/3 244/2/3 247/2/3
f 249/2/3 246/2/3 245/2/3
f 250/2/3 246/2/3 249/2/3
f 255/2/3 252/2/3 251/2/3
f 256/2/3 252/2/3 255/2/3
f 257/2/3 254/2/3 253/2/3
f 258/2/3 254/2/3 257/2/3
f 263/2/3 260/2/3 259/2/3
f 264/1/3 261/1/3 260/1/3
f 266/2/3 263/2/3 262/2/3
f 267/2/3 260/2/3 263/2/3
f 267/2/3 263/2/3 266/2/3
f 268/2/3 265/2/3 264/2/3
f 268/1/3 264/1/3 260/1/3
f 269/2/3 265/2/3 268/2/3
f 270/2/3 260/2/3 267/2/3
f 271/1/3 268/1/3 260/1/3
f 271/2/3 260/2/3 270/2/3
f 272/1/3 268/1/3 271/1/3
f 277/2/3 274/2/3 273/2/3
f 278/2/3 274/2/3 277/2/3
f 279/2/3 276/2/3 275/2/3
f 280/2/3 276/2/3 279/2/3
f 285/2/3 282/2/3 281/2/3
f 286/2/3 282/2/3 285/2/3
f 287/2/3 284/2/3 283/2/3
f 288/2/3 284/2/3 287/2/3
f 291/2/3 290/2/3 289/2/3
f 292/2/3 290/2/3 291/2/3
f 293/2/4 294/2/4 295/2/4
f 295/2/4 294/2/4 296/2/4
f 297/2/4 298/2/4 301/2/4
f 301/2/4 298/2/4 302/2/4
f 299/2/4 300/2/4 303/2/4
f 303/2/4 300/2/4 304/2/4
f 305/2/4 306/2/4 309/2/4
f 309/2/4 306/2/4 310/2/4
f 307/2/4 308/2/4 311/2/4
f 311/2/4 308/2/4 312/2/4
f 313/2/4 314/2/4 316/2/4
f 316/2/4 314/2/4 317/2/4
f 315/2/4 316/2/4 319/2/4
f 317/2/4 318/2/4 319/2/4
f 316/2/4 317/2/4 319/2/4
f 319/2/4 318/2/4 320/2/4
f 319/1/4 320/1/4 321/1/4
f 321/1/4 320/1/4 322/1/4
f 322/1/4 320/1/4 323/1/4
f 323/1/4 320/1/4 324/1/4
f 322/2/4 323/2/4 325/2/4
f 325/2/4 323/2/4 326/2/4
f 327/2/4 328/2/4 329/2/4
f 329/2/4 328/2/4 330/2/4
f 331/1/4 332/1/4 335/1/4
f 335/1/4 332/1/4 336/1/4
f 333/1/4 334/1/4 337/1/4
f 337/1/4 334/1/4 338/1/4
f 339/1/4 340/1/4 343/1/4
f 343/1/4 340/1/4 344/1/4
f 341/1/4 342/1/4 345/1/4
f 345/1/4 342/1/4 346/1/4
f 347/2/4 348/2/4 351/2/4
f 351/2/4 348/2/4 352/2/4
f 349/2/4 350/2/4 353/2/4
f 353/2/4 350/2/4 354/2/4
f 355/2/4 356/2/4 359/2/4
f 359/2/4 356/2/4 360/2/4
f 357/2/4 358/2/4 361/2/4
f 361/2/4 358/2/4 362/2/4
f 363/2/4 364/2/4 367/2/4
f 364/1/4 365/1/4 368/1/4
f 366/2/4 367/2/4 370/2/4
f 367/2/4 364/2/4 371/2/4
f 370/2/4 367/2/4 371/2/4
f 368/2/4 369/2/4 372/2/4
f 364/1/4 368/1/4 372/1/4
f 372/2/4 369/2/4 373/2/4
f 371/2/4 364/2/4 374/2/4
f 364/1/4 372/1/4 375/1/4
f 374/2/4 364/2/4 375/2/4
f 375/1/4 372/1/4 376/1/4
f 377/2/4 378/2/4 379/2/4
f 379/2/4 378/2/4 380/2/4
f 381/2/4 382/2/4 384/2/4
f 384/2/4 382/2/4 385/2/4
f 383/2/4 384/2/4 387/2/4
f 387/2/4 384/2/4 388/2/4
f 385/2/4 386/2/4 389/2/4
f 389/2/4 386/2/4 390/2/4
f 388/2/4 389/2/4 391/2/4
f 391/2/4 389/2/4 392/2/4
f 397/2/5 394/2/5 393/2/5
f 398/1/5 395/1/5 394/1/5
f 402/2/5 397/2/5 396/2/5
f 403/2/5 394/2/5 397/2/5
f 403/2/5 397/2/5 402/2/5
f 404/1/5 398/1/5 394/1/5
f 404/2/5 399/2/5 398/2/5
f 405/2/5 399/2/5 404/2/5
f 407/2/5 401/2/5 400/2/5
f 408/2/5 401/2/5 407/2/5
f 410/2/5 394/2/5 403/2/5
f 411/1/5 404/1/5 394/1/5
f 411/2/5 394/2/5 410/2/5
f 412/1/5 404/1/5 411/1/5
f 415/2/5 409/2/5 408/2/5
f 415/2/5 407/2/5 406/2/5
f 415/2/5 408/2/5 407/2/5
f 416/2/5 409/2/5 415/2/5
f 418/2/5 414/2/5 413/2/5
f 419/2/5 414/2/5 418/2/5
f 421/1/5 416/1/5 415/1/5
f 422/1/5 416/1/5 421/1/5
f 423/1/5 416/1/5 422/1/5
f 424/1/5 416/1/5 423/1/5
f 425/2/5 420/2/5 419/2/5
f 425/2/5 418/2/5 417/2/5
f 425/2/5 419/2/5 418/2/5
f 426/2/5 420/2/5 425/2/5
f 427/2/5 420/2/5 426/2/5
f 428/2/5 420/2/5 427/2/5
f 429/2/5 427/2/5 426/2/5
f 430/2/5 427/2/5 429/2/5
f 431/2/5 423/2/5 422/2/5
f 432/2/5 423/2/5 431/2/5
f 437/2/5 434/2/5 433/2/5
f 438/2/5 434/2/5 437/2/5
f 439/2/5 436/2/5 435/2/5
f 440/2/5 436/2/5 439/2/5
f 449/2/5 442/2/5 441/2/5
f 450/2/5 442/2/5 449/2/5
f 451/2/5 444/2/5 443/2/5
f 452/2/5 444/2/5 451/2/5
f 453/2/5 446/2/5 445/2/5
f 454/2/5 446/2/5 453/2/5
f 455/2/5 448/2/5 447/2/5
f 456/2/5 448/2/5 455/2/5
f 461/2/5 458/2/5 457/2/5
f 462/2/5 458/2/5 461/2/5
f 463/2/5 460/2/5 459/2/5
f 464/2/5 460/2/5 463/2/5
f 473/2/5 470/2/5 469/2/5
f 474/2/5 470/2/5 473/2/5
f 475/2/5 472/2/5 471/2/5
f 476/2/5 472/2/5 475/2/5
f 477/2/5 466/2/5 465/2/5
f 478/2/5 466/2/5 477/2/5
f 479/2/5 468/2/5 467/2/5
f 480/2/5 468/2/5 479/2/5
f 483/2/5 482/2/5 481/2/5
f 484/2/5 482/2/5 483/2/5
f 487/2/5 486/2/5 485/2/5
f 488/2/5 486/2/5 487/2/5
f 489/2/6 490/2/6 491/2/6
f 491/2/6 490/2/6 492/2/6
f 493/2/6 494/2/6 495/2/6
f 495/2/6 494/2/6 496/2/6
f 497/2/6 498/2/6 501/2/6
f 501/2/6 498/2/6 502/2/6
f 499/2/6 500/2/6 503/2/6
f 503/2/6 500/2/6 504/2/6
f 505/2/6 506/2/6 513/2/6
f 513/2/6 506/2/6 514/2/6
f 507/2/6 508/2/6 515/2/6
f 515/2/6 508/2/6 516/2/6
f 509/2/6 510/2/6 517/2/6
f 517/2/6 510/2/6 518/2/6
f 511/2/6 512/2/6 519/2/6
f 519/2/6 512/2/6 520/2/6
f 521/2/6 522/2/6 525/2/6
f 525/2/6 522/2/6 526/2/6
f 523/2/6 524/2/6 527/2/6
f 527/2/6 524/2/6 528/2/6
f 529/2/6 530/2/6 533/2/6
f 530/1/6 531/1/6 534/1/6
f 532/2/6 533/2/6 538/2/6
f 533/2/6 530/2/6 539/2/6
f 538/2/6 533/2/6 539/2/6
f 530/1/6 534/1/6 540/1/6
f 534/2/6 535/2/6 540/2/6
f 540/2/6 535/2/6 541/2/6
f 536/2/6 537/2/6 543/2/6
f 543/2/6 537/2/6 544/2/6
f 539/2/6 530/2/6 546/2/6
f 530/1/6 540/1/6 547/1/6
f 546/2/6 530/2/6 547/2/6
f 547/1/6 540/1/6 548/1/6
f 544/2/6 545/2/6 549/2/6
f 542/2/6 543/2/6 549/2/6
f 543/2/6 544/2/6 549/2/6
f 549/2/6 545/2/6 550/2/6
f 549/1/6 550/1/6 551/1/6
f 551/1/6 550/1/6 552/1/6
f 552/1/6 550/1/6 553/1/6
f 553/1/6 550/1/6 554/1/6
f 552/2/6 553/2/6 555/2/6
f 555/2/6 553/2/6 556/2/6
f 557/1/6 558/1/6 561/1/6
f 561/1/6 558/1/6 562/1/6
f 559/1/6 560/1/6 563/1/6
f 563/1/6 560/1/6 564/1/6
f 565/1/6 566/1/6 569/1/6
f 569/1/6 566/1/6 570/1/6
f 567/1/6 568/1/6 571/1/6
f 571/1/6 568/1/6 572/1/6
f 573/2/6 574/2/6 575/2/6
f 575/2/6 574/2/6 576/2/6
f 577/2/6 578/2/6 580/2/6
f 580/2/6 578/2/6 581/2/6
f 579/2/6 580/2/6 583/2/6
f 583/2/6 580/2/6 584/2/6
f 581/2/6 582/2/6 585/2/6
f 585/2/6 582/2/6 586/2/6
f 584/2/6 585/2/6 587/2/6
f 587/2/6 585/2/6 588/2/6
